<?xml version="1.0" encoding="utf-8"?>
<!-- Generator: Adobe Illustrator 23.1.0, SVG Export Plug-In . SVG Version: 6.00 Build 0)  -->
<svg version="1.1" id="Layer_1" xmlns="http://www.w3.org/2000/svg" xmlns:xlink="http://www.w3.org/1999/xlink" x="0px" y="0px"
	 viewBox="0 0 300 300" style="enable-background:new 0 0 300 300;" xml:space="preserve">
<style type="text/css">
	.st0{opacity:0.42;fill:url(#SVGID_1_);}
	.st1{fill:#ED2C65;}
	.st2{fill:url(#SVGID_2_);}
	.st3{fill:url(#SVGID_3_);}
	.st4{fill:url(#SVGID_4_);}
	.st5{fill:url(#SVGID_5_);}
	.st6{fill:url(#SVGID_6_);}
	.st7{fill:url(#SVGID_7_);}
	.st8{fill:url(#SVGID_8_);}
	.st9{fill:url(#SVGID_9_);}
	.st10{fill:url(#SVGID_10_);}
	.st11{fill:url(#SVGID_11_);}
	.st12{fill:url(#SVGID_12_);}
	.st13{fill:url(#SVGID_13_);}
	.st14{fill:url(#SVGID_14_);}
	.st15{fill:url(#SVGID_15_);}
	.st16{fill:url(#SVGID_16_);}
	.st17{fill:url(#SVGID_17_);}
	.st18{fill:#AF1E47;}
	.st19{fill:#FFFFFF;}
	.st20{opacity:0.28;fill:#6981C0;}
	.st21{fill:#E0E0E0;}
	.st22{fill:url(#SVGID_18_);}
	.st23{fill:url(#SVGID_19_);}
	.st24{fill:url(#SVGID_20_);}
	.st25{fill:url(#SVGID_21_);}
	.st26{fill:#F38083;}
	.st27{fill:url(#SVGID_22_);}
	.st28{fill:#6981C0;}
	.st29{fill:#8196CC;}
	.st30{fill:#214184;}
	.st31{fill:#1B3B6C;}
	.st32{fill:#1D2251;}
	.st33{fill:url(#SVGID_23_);}
	.st34{fill:url(#SVGID_24_);}
	.st35{fill:url(#SVGID_25_);}
	.st36{fill:url(#SVGID_26_);}
	.st37{opacity:0.42;fill:url(#SVGID_27_);}
</style>
<linearGradient id="SVGID_1_" gradientUnits="userSpaceOnUse" x1="155.3103" y1="215.5109" x2="155.3103" y2="43.1587">
	<stop  offset="0.3183" style="stop-color:#51B8DC"/>
	<stop  offset="1" style="stop-color:#FFFFFF"/>
</linearGradient>
<circle class="st0" cx="155.3" cy="129.3" r="86.2"/>
<g>
	<g>
		<path class="st1" d="M67.3,65.1L54.8,65l-14-10.7l0,0l0,0c-0.1-3,0.9-5.5,1.9-7.3c0.6-1,2.2-0.8,2.4,0.3c0.7,2.9,2.7,5.6,5.7,8
			c1.2,1,2.5,2,4,2.9c2.8,1.9,6.1,3.6,9.4,5.2c0.6,0.3,1.2,0.6,1.8,0.9C66.4,64.7,66.8,64.9,67.3,65.1z"/>
		
			<linearGradient id="SVGID_2_" gradientUnits="userSpaceOnUse" x1="44.9027" y1="197.2432" x2="53.7328" y2="197.2432" gradientTransform="matrix(0.9718 0.236 -0.236 0.9718 34.6356 -132.2253)">
			<stop  offset="0" style="stop-color:#B82154"/>
			<stop  offset="1" style="stop-color:#ED2C65"/>
		</linearGradient>
		<path class="st2" d="M39.5,75.6l-6.7,7.6c-1.9-6.4-1.2-10.4-1.2-10.4c0.4-7.3,3.8-12.2,5.4-14.1c0,0,0,0,0,0
			c0.3-0.4,0.9-0.2,1,0.3c0.3,2,1.1,3.6,2,4.8L39.5,75.6z"/>
		
			<linearGradient id="SVGID_3_" gradientUnits="userSpaceOnUse" x1="51.3938" y1="195.0235" x2="72.2472" y2="195.0235" gradientTransform="matrix(0.9718 0.236 -0.236 0.9718 34.6356 -132.2253)">
			<stop  offset="0.2528" style="stop-color:#9E1C43"/>
			<stop  offset="1" style="stop-color:#ED2C65"/>
		</linearGradient>
		<path class="st3" d="M58.6,75.4l-19.1,0.2l0.5-11.8c3.4,4.7,9.6,5.5,9.6,5.5L58.6,75.4z"/>
		
			<linearGradient id="SVGID_4_" gradientUnits="userSpaceOnUse" x1="59.1202" y1="190.7025" x2="62.5083" y2="184.8341" gradientTransform="matrix(0.9718 0.236 -0.236 0.9718 34.6356 -132.2253)">
			<stop  offset="0.2528" style="stop-color:#9E1C43"/>
			<stop  offset="1" style="stop-color:#ED2C65"/>
		</linearGradient>
		<path class="st4" d="M58.6,75.4c0,0-4.7-2.9-9.2-6.2c0,0,0,0,0,0c-6.4-5.5-8.4-10.6-8.5-14.8l0,0c0-0.4,0-0.8,0-1.1l1.6,0.1
			L54.8,65L58.6,75.4z"/>
		
			<linearGradient id="SVGID_5_" gradientUnits="userSpaceOnUse" x1="49.0028" y1="212.6144" x2="62.167" y2="212.6144" gradientTransform="matrix(0.9718 0.236 -0.236 0.9718 34.6356 -132.2253)">
			<stop  offset="0" style="stop-color:#B82154"/>
			<stop  offset="0.8021" style="stop-color:#ED2C65"/>
		</linearGradient>
		<path class="st5" d="M42.1,100.5c-5.3-6.6-8-12.6-9.4-17.2l6.7-7.7L42.1,100.5z"/>
		
			<linearGradient id="SVGID_6_" gradientUnits="userSpaceOnUse" x1="63.5537" y1="211.321" x2="63.5537" y2="196.0804" gradientTransform="matrix(0.9718 0.236 -0.236 0.9718 34.6356 -132.2253)">
			<stop  offset="0" style="stop-color:#B82154"/>
			<stop  offset="0.8021" style="stop-color:#ED2C65"/>
		</linearGradient>
		<polygon class="st6" points="40.2,83.1 56.1,90.4 58.6,75.4 39.5,75.6 		"/>
		
			<linearGradient id="SVGID_7_" gradientUnits="userSpaceOnUse" x1="79.7528" y1="196.0804" x2="79.7528" y2="184.0666" gradientTransform="matrix(0.9718 0.236 -0.236 0.9718 34.6356 -132.2253)">
			<stop  offset="0" style="stop-color:#B82154"/>
			<stop  offset="0.8021" style="stop-color:#ED2C65"/>
		</linearGradient>
		<path class="st7" d="M79.5,78.6l-20.9-3.2L54.8,65l12.5,0.1c2.7,1.3,5.4,2.5,7.9,3.6c1.7,0.7,3.2,1.7,4.7,2.8l0,0L79.5,78.6z"/>
		
			<linearGradient id="SVGID_8_" gradientUnits="userSpaceOnUse" x1="92.12" y1="192.2617" x2="104.7263" y2="192.2617" gradientTransform="matrix(0.9718 0.236 -0.236 0.9718 34.6356 -132.2253)">
			<stop  offset="4.927099e-02" style="stop-color:#51B8DC"/>
			<stop  offset="1" style="stop-color:#FFFFFF"/>
		</linearGradient>
		<path class="st8" d="M89.9,84.2l-10.3-5.6l0.4-7.1c1.2,0.9,2.4,1.9,3.5,3c2,2.1,3.8,4.5,5.2,7C89.1,82.4,89.5,83.3,89.9,84.2z"/>
		
			<linearGradient id="SVGID_9_" gradientUnits="userSpaceOnUse" x1="83.9694" y1="237.1059" x2="73.0205" y2="218.1419" gradientTransform="matrix(0.9718 0.236 -0.236 0.9718 34.6356 -132.2253)">
			<stop  offset="4.927099e-02" style="stop-color:#51B8DC"/>
			<stop  offset="1" style="stop-color:#FFFFFF"/>
		</linearGradient>
		<path class="st9" d="M72.3,114.5C72.3,114.5,72.3,114.5,72.3,114.5c-7.6,1.9-16.1,0.1-24.5-7.7c-0.9-0.9-1.9-1.8-2.8-2.8
			c-1.1-1.2-2-2.3-2.9-3.4l18.3,2.1L72.3,114.5z"/>
		
			<linearGradient id="SVGID_10_" gradientUnits="userSpaceOnUse" x1="68.3733" y1="224.4082" x2="68.3733" y2="207.8862" gradientTransform="matrix(0.9718 0.236 -0.236 0.9718 34.6356 -132.2253)">
			<stop  offset="4.927099e-02" style="stop-color:#51B8DC"/>
			<stop  offset="1" style="stop-color:#FFFFFF"/>
		</linearGradient>
		<polygon class="st10" points="60.4,102.7 56.1,90.4 40.2,83.1 42.1,100.5 		"/>
		
			<linearGradient id="SVGID_11_" gradientUnits="userSpaceOnUse" x1="72.2472" y1="203.7007" x2="88.1635" y2="203.7007" gradientTransform="matrix(0.9718 0.236 -0.236 0.9718 34.6356 -132.2253)">
			<stop  offset="0" style="stop-color:#B82154"/>
			<stop  offset="0.8021" style="stop-color:#ED2C65"/>
		</linearGradient>
		<polygon class="st11" points="58.6,75.4 70.7,92.8 56.1,90.4 		"/>
		
			<linearGradient id="SVGID_12_" gradientUnits="userSpaceOnUse" x1="73.3746" y1="216.161" x2="88.1635" y2="216.161" gradientTransform="matrix(0.9718 0.236 -0.236 0.9718 34.6356 -132.2253)">
			<stop  offset="4.927099e-02" style="stop-color:#51B8DC"/>
			<stop  offset="1" style="stop-color:#FFFFFF"/>
		</linearGradient>
		<polygon class="st12" points="70.7,92.8 60.4,102.7 56.1,90.4 		"/>
		
			<linearGradient id="SVGID_13_" gradientUnits="userSpaceOnUse" x1="80.4874" y1="220.5012" x2="94.8228" y2="220.5012" gradientTransform="matrix(0.9718 0.236 -0.236 0.9718 34.6356 -132.2253)">
			<stop  offset="4.927099e-02" style="stop-color:#51B8DC"/>
			<stop  offset="1" style="stop-color:#FFFFFF"/>
		</linearGradient>
		<polygon class="st13" points="70.7,92.8 72.3,114.5 60.4,102.7 		"/>
		
			<linearGradient id="SVGID_14_" gradientUnits="userSpaceOnUse" x1="72.2472" y1="202.2189" x2="104.1942" y2="202.2189" gradientTransform="matrix(0.9718 0.236 -0.236 0.9718 34.6356 -132.2253)">
			<stop  offset="4.927099e-02" style="stop-color:#51B8DC"/>
			<stop  offset="1" style="stop-color:#FFFFFF"/>
		</linearGradient>
		<polygon class="st14" points="70.7,92.8 86.7,95.1 79.5,78.6 58.6,75.4 		"/>
		
			<linearGradient id="SVGID_15_" gradientUnits="userSpaceOnUse" x1="88.1628" y1="219.725" x2="104.1927" y2="219.725" gradientTransform="matrix(0.9718 0.236 -0.236 0.9718 34.6356 -132.2253)">
			<stop  offset="4.927099e-02" style="stop-color:#51B8DC"/>
			<stop  offset="1" style="stop-color:#FFFFFF"/>
		</linearGradient>
		<path class="st15" d="M86.7,95.1l-7.5,16.6c-2.2,1.3-4.5,2.2-6.9,2.8l-1.6-21.7L86.7,95.1z"/>
		
			<linearGradient id="SVGID_16_" gradientUnits="userSpaceOnUse" x1="93.3571" y1="201.4427" x2="109.1479" y2="201.4427" gradientTransform="matrix(0.9718 0.236 -0.236 0.9718 34.6356 -132.2253)">
			<stop  offset="4.927099e-02" style="stop-color:#51B8DC"/>
			<stop  offset="1" style="stop-color:#FFFFFF"/>
		</linearGradient>
		<path class="st16" d="M91.5,96.3l-4.8-1.2l-7.1-16.5l10.3,5.6C91.5,88.1,92.1,92.3,91.5,96.3z"/>
		
			<linearGradient id="SVGID_17_" gradientUnits="userSpaceOnUse" x1="100.821" y1="217.5385" x2="109.1946" y2="217.5385" gradientTransform="matrix(0.9718 0.236 -0.236 0.9718 34.6356 -132.2253)">
			<stop  offset="4.927099e-02" style="stop-color:#51B8DC"/>
			<stop  offset="1" style="stop-color:#FFFFFF"/>
		</linearGradient>
		<path class="st17" d="M87.4,104.8c-1.9,2.2-4.1,4.1-6.5,5.7c-0.6,0.4-1.2,0.8-1.8,1.1l7.5-16.6l4.8,1.2l-0.1,0.6
			C90.8,99.7,89.5,102.4,87.4,104.8z"/>
	</g>
	<circle class="st18" cx="75.7" cy="104.6" r="11.7"/>
	<path class="st19" d="M227.3,93.2l-38,104.9c-2,5.4-5.8,9.7-10.7,12.3c-3.2,1.7-6.9,2.7-10.8,2.7h-49.1c-0.8,0-1.6,0-2.3-0.1
		c-0.8,0-1.5-0.1-2.2-0.3h0c-17.9-2.9-28.8-22.4-20.8-39.5l0.2-0.5l37.2-79.5H227.3z"/>
	<ellipse class="st20" cx="147.4" cy="239.4" rx="122.1" ry="16.5"/>
	<path class="st21" d="M178.6,210.4c-3.2,1.7-6.9,2.7-10.8,2.7h-49.1c-0.8,0-1.6,0-2.3-0.1l-2.1-0.2c0,0,0,0-0.1,0h0
		c-2.5-0.2-35.2-3.7-40.2-40h75.2C149.1,172.7,149.1,200.5,178.6,210.4z"/>
	<linearGradient id="SVGID_18_" gradientUnits="userSpaceOnUse" x1="130.4258" y1="104.9303" x2="211.2216" y2="104.9303">
		<stop  offset="0" style="stop-color:#30377D"/>
		<stop  offset="0.5303" style="stop-color:#5D3A7E"/>
		<stop  offset="1" style="stop-color:#EE74A7"/>
	</linearGradient>
	<rect x="130.4" y="102.4" class="st22" width="80.8" height="5"/>
	<linearGradient id="SVGID_19_" gradientUnits="userSpaceOnUse" x1="126.2929" y1="118.3962" x2="207.0893" y2="118.3962">
		<stop  offset="0" style="stop-color:#30377D"/>
		<stop  offset="0.5303" style="stop-color:#5D3A7E"/>
		<stop  offset="1" style="stop-color:#EE74A7"/>
	</linearGradient>
	<rect x="126.3" y="115.9" class="st23" width="80.8" height="5"/>
	<linearGradient id="SVGID_20_" gradientUnits="userSpaceOnUse" x1="108.6515" y1="145.5999" x2="197.6536" y2="145.5999">
		<stop  offset="0.3371" style="stop-color:#F78F20"/>
		<stop  offset="1" style="stop-color:#FFC713"/>
	</linearGradient>
	<path class="st24" d="M185.2,127.6c-7.4,0-23.1,9-30.3,13.4c-3.9-4.4-12.8-13.4-20.2-13.4c-10,0-21.1,8.1-24.8,18s1.3,18,11.3,18
		c7.4,0,23.1-9,30.3-13.4c3.9,4.4,12.8,13.4,20.2,13.4c10,0,21.1-8.1,24.8-18S195.1,127.6,185.2,127.6z M123.9,156.4
		c-6,0-9-4.8-6.8-10.8s8.9-10.8,14.9-10.8c3.9,0,10.6,5.7,15.4,10.8C138.7,150.8,127.7,156.4,123.9,156.4L123.9,156.4z M174.3,156.4
		c-3.9,0-10.6-5.7-15.4-10.8c8.7-5.2,19.7-10.8,23.5-10.8c6,0,9,4.8,6.8,10.8S180.3,156.4,174.3,156.4z"/>
	<linearGradient id="SVGID_21_" gradientUnits="userSpaceOnUse" x1="67.8052" y1="134.6704" x2="118.0479" y2="134.6704">
		<stop  offset="0.3371" style="stop-color:#F78F20"/>
		<stop  offset="1" style="stop-color:#FFC713"/>
	</linearGradient>
	<path class="st25" d="M117.6,166.1l-32.9-63c-1.2-3.3-4.4-5.7-8.2-5.7c-4.8,0-8.7,3.9-8.7,8.7c0,2.9,1.4,5.5,3.6,7l39.3,57.1
		c1.2,1.8,3.6,2.3,5.4,1.2C117.9,170.3,118.6,168,117.6,166.1z"/>
	<path class="st18" d="M273.9,112.9l-10.4,24.8l-88.1,51.3c-2.1,1.2-4.8,0.7-6.3-1.3c-0.6-0.9-0.9-1.8-0.9-2.8
		c0-1.4,0.6-2.8,1.8-3.7l79.6-64.7L273.9,112.9z"/>
	<path class="st26" d="M273.9,112.9l-5,11.9l-5.4,12.8c-17.4-6.5-14-21.3-14-21.3l11.8-1.7L273.9,112.9z"/>
	<linearGradient id="SVGID_22_" gradientUnits="userSpaceOnUse" x1="261.3051" y1="118.8266" x2="273.8852" y2="118.8266">
		<stop  offset="9.725609e-02" style="stop-color:#1D224C"/>
		<stop  offset="0.4203" style="stop-color:#2C326E"/>
	</linearGradient>
	<path class="st27" d="M273.9,112.9l-5,11.9c-5.5-2.5-7.2-6.8-7.6-10.2L273.9,112.9z"/>
	<polygon class="st28" points="52,248.5 136.3,248.5 130.2,235.9 118,233.3 115.9,219.4 83.7,189.5 63.9,206.4 64.8,215.9 
		45.5,238.1 40.3,248.5 	"/>
	<polygon class="st28" points="171,231.1 239.7,231.1 236.2,219 223.6,209.8 205.4,185.5 201,202.5 203.2,213.3 194.9,219 
		189.3,215.9 	"/>
	<polygon class="st28" points="156.7,252.4 186.2,252.4 205.4,244.6 198.4,239.8 175,237.2 	"/>
	<polygon class="st29" points="83.7,189.5 86.3,209.8 115.9,219.4 	"/>
	<polygon class="st29" points="118,233.3 107.4,235.7 115.9,219.4 	"/>
	<polygon class="st30" points="107.4,235.7 121.3,241.8 130.2,235.9 118,233.3 	"/>
	<polygon class="st31" points="86.3,209.8 70.7,232 115.9,219.4 	"/>
	<polygon class="st29" points="171,231.1 192.1,223.1 194.9,219 189.3,215.9 	"/>
	<polygon class="st29" points="205.4,185.5 207.7,202.9 203.2,213.3 201,202.5 	"/>
	<polygon class="st30" points="194.9,219 210.6,222.6 219.3,220.9 203.2,213.3 	"/>
	<polygon class="st32" points="207.7,202.9 219.3,220.9 203.2,213.3 	"/>
	<linearGradient id="SVGID_23_" gradientUnits="userSpaceOnUse" x1="118.0479" y1="63.9748" x2="118.0479" y2="88.3018">
		<stop  offset="5.949491e-02" style="stop-color:#5D3A7E"/>
		<stop  offset="1" style="stop-color:#EE74A7"/>
	</linearGradient>
	<circle class="st33" cx="118" cy="76.1" r="12.2"/>
	<linearGradient id="SVGID_24_" gradientUnits="userSpaceOnUse" x1="231.4244" y1="168.878" x2="231.4244" y2="182.1652">
		<stop  offset="5.949491e-02" style="stop-color:#5D3A7E"/>
		<stop  offset="1" style="stop-color:#EE74A7"/>
	</linearGradient>
	<circle class="st34" cx="231.4" cy="175.5" r="6.6"/>
	<linearGradient id="SVGID_25_" gradientUnits="userSpaceOnUse" x1="46.8088" y1="153.1477" x2="73.9581" y2="153.1477">
		<stop  offset="0.3371" style="stop-color:#F78F20"/>
		<stop  offset="1" style="stop-color:#FFC713"/>
	</linearGradient>
	<polygon class="st35" points="46.8,138.8 57.2,163.8 74,167.5 66.6,153.1 	"/>
	<linearGradient id="SVGID_26_" gradientUnits="userSpaceOnUse" x1="194.718" y1="70.071" x2="209.27" y2="70.071">
		<stop  offset="0.3371" style="stop-color:#F78F20"/>
		<stop  offset="1" style="stop-color:#FFC713"/>
	</linearGradient>
	<polygon class="st36" points="204.7,53 194.7,75.2 204.7,87.1 209.3,70.1 	"/>
	<linearGradient id="SVGID_27_" gradientUnits="userSpaceOnUse" x1="201.994" y1="70.071" x2="209.27" y2="70.071">
		<stop  offset="3.794483e-02" style="stop-color:#51B8DC"/>
		<stop  offset="1" style="stop-color:#FFFFFF"/>
	</linearGradient>
	<polygon class="st37" points="204.7,53 202,70.1 204.7,87.1 209.3,70.1 	"/>
	<polygon class="st29" points="70.7,232 99.8,234.7 115.9,219.4 	"/>
	<polygon class="st31" points="40.3,248.5 70.7,232 99.8,234.7 118.8,248.5 121.3,241.8 130.2,235.9 136.3,248.5 	"/>
</g>
</svg>
