<?xml version="1.0" encoding="utf-8"?>
<!-- Generator: Adobe Illustrator 23.1.0, SVG Export Plug-In . SVG Version: 6.00 Build 0)  -->
<svg version="1.1" id="Layer_1" xmlns="http://www.w3.org/2000/svg" xmlns:xlink="http://www.w3.org/1999/xlink" x="0px" y="0px"
	 viewBox="0 0 300 300" style="enable-background:new 0 0 300 300;" xml:space="preserve">
<style type="text/css">
	.st0{opacity:0.42;fill:url(#SVGID_1_);}
	.st1{opacity:0.28;fill:#6981C0;}
	.st2{fill:#1B3B6C;}
	.st3{fill:#6981C0;}
	.st4{fill:url(#SVGID_2_);}
	.st5{fill:url(#SVGID_3_);}
	.st6{fill:#FFFFFF;}
	.st7{fill:url(#SVGID_4_);}
	.st8{fill:url(#SVGID_5_);}
	.st9{fill:url(#SVGID_6_);}
	.st10{fill:#8196CC;}
	.st11{fill:url(#SVGID_7_);}
	.st12{opacity:0.42;fill:url(#SVGID_8_);}
	.st13{fill:url(#SVGID_9_);}
	.st14{opacity:0.42;fill:url(#SVGID_10_);}
	.st15{fill:#ED2C65;}
	.st16{fill:url(#SVGID_11_);}
	.st17{fill:url(#SVGID_12_);}
	.st18{fill:url(#SVGID_13_);}
	.st19{fill:url(#SVGID_14_);}
	.st20{fill:url(#SVGID_15_);}
	.st21{fill:url(#SVGID_16_);}
	.st22{fill:url(#SVGID_17_);}
	.st23{fill:url(#SVGID_18_);}
	.st24{fill:url(#SVGID_19_);}
	.st25{fill:url(#SVGID_20_);}
	.st26{fill:url(#SVGID_21_);}
	.st27{fill:url(#SVGID_22_);}
	.st28{fill:url(#SVGID_23_);}
	.st29{fill:url(#SVGID_24_);}
	.st30{fill:url(#SVGID_25_);}
	.st31{fill:url(#SVGID_26_);}
	.st32{fill:#AF1E47;}
	.st33{fill:url(#SVGID_27_);}
	.st34{fill:#214184;}
</style>
<linearGradient id="SVGID_1_" gradientUnits="userSpaceOnUse" x1="142.6029" y1="224.1063" x2="142.6029" y2="51.754">
	<stop  offset="0.3183" style="stop-color:#51B8DC"/>
	<stop  offset="1" style="stop-color:#FFFFFF"/>
</linearGradient>
<circle class="st0" cx="142.6" cy="137.9" r="86.2"/>
<g>
	<ellipse class="st1" cx="149.6" cy="230.8" rx="122.1" ry="16.5"/>
	<polygon class="st2" points="225.5,186 209.3,172.4 192.6,205.1 182.3,208.6 169.5,223.4 194.9,223.4 201.5,214.7 220.6,219.5 
		239.7,197.9 	"/>
	<polygon class="st3" points="258.4,208.6 233.6,237.7 192.6,237.7 209.3,223.8 214.5,209.5 228.4,199.1 225.5,181.2 235.3,181.2 	
		"/>
	<linearGradient id="SVGID_2_" gradientUnits="userSpaceOnUse" x1="55.0078" y1="165.7408" x2="216.6229" y2="165.7408">
		<stop  offset="9.725609e-02" style="stop-color:#1D224C"/>
		<stop  offset="0.4203" style="stop-color:#2C326E"/>
	</linearGradient>
	<path class="st4" d="M210.4,191.2L148.7,220c-7.1,3.3-17.3,1.9-22.8-3.2l-67.3-61.4c-5.6-5.1-4.3-11.8,2.7-15.1l61.8-28.9
		c7.1-3.3,17.3-1.9,22.8,3.2l67.3,61.4C218.7,181.1,217.5,187.9,210.4,191.2z"/>
	<linearGradient id="SVGID_3_" gradientUnits="userSpaceOnUse" x1="229.7376" y1="159.0973" x2="229.7376" y2="172.3844">
		<stop  offset="5.949491e-02" style="stop-color:#5D3A7E"/>
		<stop  offset="1" style="stop-color:#EE74A7"/>
	</linearGradient>
	<circle class="st5" cx="229.7" cy="165.7" r="6.6"/>
	<circle class="st6" cx="158" cy="76.8" r="6.6"/>
	<linearGradient id="SVGID_4_" gradientUnits="userSpaceOnUse" x1="55.0078" y1="159.7526" x2="216.6229" y2="159.7526">
		<stop  offset="0" style="stop-color:#30377D"/>
		<stop  offset="0.5303" style="stop-color:#5D3A7E"/>
		<stop  offset="1" style="stop-color:#EE74A7"/>
	</linearGradient>
	<path class="st7" d="M210.4,185.2l-61.8,28.9c-7.1,3.3-17.3,1.9-22.8-3.2l-67.3-61.4c-5.6-5.1-4.3-11.8,2.7-15.1l61.8-28.9
		c7.1-3.3,17.3-1.9,22.8,3.2l67.3,61.4C218.7,175.1,217.5,181.9,210.4,185.2z"/>
	<linearGradient id="SVGID_5_" gradientUnits="userSpaceOnUse" x1="48.3642" y1="162.994" x2="48.3642" y2="189.9528">
		<stop  offset="5.949491e-02" style="stop-color:#5D3A7E"/>
		<stop  offset="1" style="stop-color:#EE74A7"/>
	</linearGradient>
	<circle class="st8" cx="48.4" cy="176.5" r="13.5"/>
	<path class="st6" d="M200.6,182.4l-52.9,24.7c-6.2,2.9-15.1,1.6-19.9-2.8L68,149.8c-4.9-4.4-3.8-10.3,2.4-13.2l52.9-24.7
		c6.2-2.9,15.1-1.6,19.9,2.8l59.8,54.5C207.8,173.6,206.8,179.5,200.6,182.4z"/>
	<linearGradient id="SVGID_6_" gradientUnits="userSpaceOnUse" x1="99.7532" y1="156.0619" x2="171.2432" y2="156.0619">
		<stop  offset="0" style="stop-color:#B82154"/>
		<stop  offset="0.8021" style="stop-color:#ED2C65"/>
	</linearGradient>
	<path class="st9" d="M107.7,167.8c8.7,8.3,20.9,12.8,27.3,10.1c4.8-2,4.8-12.8,4.5-18c7.4,2.1,23.1,6.3,27.9,4.3
		c6.4-2.7,4.5-11.6-4.1-19.9c-8.7-8.3-20.9-12.8-27.3-10.1c-4.8,2-4.8,12.8-4.5,18c-7.4-2.1-23.1-6.3-27.9-4.3
		C97.2,150.6,99,159.5,107.7,167.8z M161.1,158.2c-2.5,1-13.1-1.3-21.9-3.7c-0.2-6.1,0.6-13.2,3.1-14.3c3.8-1.6,11.2,1.1,16.4,6.1
		C163.9,151.3,165,156.6,161.1,158.2L161.1,158.2z M112.3,165.8c-5.2-5-6.3-10.3-2.5-11.9c2.5-1,13.1,1.3,21.9,3.7
		c0.2,6.1-0.6,13.2-3.1,14.3C124.9,173.5,117.5,170.8,112.3,165.8z"/>
	<polygon class="st3" points="49.9,243.4 139.2,243.4 129.3,228.2 120.8,226 120.8,220.8 105,210.8 91.6,192.5 77.2,186 74.6,206.4 
			"/>
	<polygon class="st10" points="77.2,186 84,197.9 105,210.8 91.6,192.5 	"/>
	<polygon class="st2" points="120.8,220.8 107.6,220.8 91.1,210.8 84,197.9 105,210.8 	"/>
	<polygon class="st2" points="120.8,226 109.8,234.7 129.3,228.2 	"/>
	<linearGradient id="SVGID_7_" gradientUnits="userSpaceOnUse" x1="63.4786" y1="98.441" x2="104.4231" y2="98.441">
		<stop  offset="0.3371" style="stop-color:#F78F20"/>
		<stop  offset="1" style="stop-color:#FFC713"/>
	</linearGradient>
	<polygon class="st11" points="63.5,85.6 83.9,111.3 104.4,106.7 86.8,90.7 	"/>
	<linearGradient id="SVGID_8_" gradientUnits="userSpaceOnUse" x1="63.4786" y1="96.1375" x2="104.4231" y2="96.1375">
		<stop  offset="3.794483e-02" style="stop-color:#51B8DC"/>
		<stop  offset="1" style="stop-color:#FFFFFF"/>
	</linearGradient>
	<polygon class="st12" points="63.5,85.6 82.3,99.4 104.4,106.7 86.8,90.7 	"/>
	<linearGradient id="SVGID_9_" gradientUnits="userSpaceOnUse" x1="197.3165" y1="128.341" x2="211.8685" y2="128.341">
		<stop  offset="0.3371" style="stop-color:#F78F20"/>
		<stop  offset="1" style="stop-color:#FFC713"/>
	</linearGradient>
	<polygon class="st13" points="207.3,111.3 197.3,133.4 207.3,145.4 211.9,128.3 	"/>
	<linearGradient id="SVGID_10_" gradientUnits="userSpaceOnUse" x1="204.5925" y1="128.341" x2="211.8685" y2="128.341">
		<stop  offset="3.794483e-02" style="stop-color:#51B8DC"/>
		<stop  offset="1" style="stop-color:#FFFFFF"/>
	</linearGradient>
	<polygon class="st14" points="207.3,111.3 204.6,128.3 207.3,145.4 211.9,128.3 	"/>
	<g>
		<path class="st15" d="M153.5,114.5l1.9,9.8l-6.1,12.6l0,0l0,0c-2.3,0.5-4.4,0.2-6-0.3c-0.9-0.3-1-1.5-0.1-1.9c2.1-1,3.9-3,5.3-5.7
			c0.6-1.1,1.1-2.3,1.7-3.6c1-2.5,1.8-5.3,2.6-8.1c0.1-0.5,0.3-1,0.4-1.5C153.3,115.3,153.4,114.9,153.5,114.5z"/>
		
			<linearGradient id="SVGID_11_" gradientUnits="userSpaceOnUse" x1="-334.7581" y1="-111.5854" x2="-327.7528" y2="-111.5854" gradientTransform="matrix(3.651077e-02 -0.9993 0.9993 3.651077e-02 286.666 -189.0618)">
			<stop  offset="0" style="stop-color:#B82154"/>
			<stop  offset="1" style="stop-color:#ED2C65"/>
		</linearGradient>
		<path class="st16" d="M166,134.5l7,4c-4.7,2.5-7.9,2.6-7.9,2.6c-5.8,0.9-10.1-1-11.9-2c0,0,0,0,0,0c-0.3-0.2-0.3-0.7,0.1-0.8
			c1.5-0.6,2.6-1.4,3.5-2.3L166,134.5z"/>
		
			<linearGradient id="SVGID_12_" gradientUnits="userSpaceOnUse" x1="-329.6085" y1="-113.3464" x2="-313.0646" y2="-113.3464" gradientTransform="matrix(3.651077e-02 -0.9993 0.9993 3.651077e-02 286.666 -189.0618)">
			<stop  offset="0.2528" style="stop-color:#9E1C43"/>
			<stop  offset="1" style="stop-color:#ED2C65"/>
		</linearGradient>
		<path class="st17" d="M162.8,119.7l3.2,14.8l-9.3,1.5c3.1-3.4,2.8-8.4,2.8-8.4L162.8,119.7z"/>
		
			<linearGradient id="SVGID_13_" gradientUnits="userSpaceOnUse" x1="-323.4788" y1="-116.7744" x2="-320.7909" y2="-121.4301" gradientTransform="matrix(3.651077e-02 -0.9993 0.9993 3.651077e-02 286.666 -189.0618)">
			<stop  offset="0.2528" style="stop-color:#9E1C43"/>
			<stop  offset="1" style="stop-color:#ED2C65"/>
		</linearGradient>
		<path class="st18" d="M162.8,119.7c0,0-1.5,4.1-3.4,8.1c0,0,0,0,0,0c-3.3,5.9-6.9,8.3-10.1,9l0,0c-0.3,0.1-0.6,0.1-0.9,0.2
			l-0.2-1.3l7.1-11.5L162.8,119.7z"/>
		
			<linearGradient id="SVGID_14_" gradientUnits="userSpaceOnUse" x1="-331.5053" y1="-99.3908" x2="-321.0616" y2="-99.3908" gradientTransform="matrix(3.651077e-02 -0.9993 0.9993 3.651077e-02 286.666 -189.0618)">
			<stop  offset="0" style="stop-color:#B82154"/>
			<stop  offset="0.8021" style="stop-color:#ED2C65"/>
		</linearGradient>
		<path class="st19" d="M185,128.5c-4.3,5.2-8.5,8.2-11.9,10l-7-4L185,128.5z"/>
		
			<linearGradient id="SVGID_15_" gradientUnits="userSpaceOnUse" x1="-319.9615" y1="-100.417" x2="-319.9615" y2="-112.5079" gradientTransform="matrix(3.651077e-02 -0.9993 0.9993 3.651077e-02 286.666 -189.0618)">
			<stop  offset="0" style="stop-color:#B82154"/>
			<stop  offset="0.8021" style="stop-color:#ED2C65"/>
		</linearGradient>
		<polygon class="st20" points="171.7,132.7 174.9,119.2 162.8,119.7 166,134.5 		"/>
		
			<linearGradient id="SVGID_16_" gradientUnits="userSpaceOnUse" x1="-307.1101" y1="-112.5079" x2="-307.1101" y2="-122.039" gradientTransform="matrix(3.651077e-02 -0.9993 0.9993 3.651077e-02 286.666 -189.0618)">
			<stop  offset="0" style="stop-color:#B82154"/>
			<stop  offset="0.8021" style="stop-color:#ED2C65"/>
		</linearGradient>
		<path class="st21" d="M162,102.9l0.8,16.8l-7.4,4.6l-1.9-9.8c0.6-2.3,1.1-4.6,1.5-6.7c0.3-1.4,0.8-2.8,1.4-4.1l0,0L162,102.9z"/>
		
			<linearGradient id="SVGID_17_" gradientUnits="userSpaceOnUse" x1="-297.2987" y1="-115.5374" x2="-287.2976" y2="-115.5374" gradientTransform="matrix(3.651077e-02 -0.9993 0.9993 3.651077e-02 286.666 -189.0618)">
			<stop  offset="4.927099e-02" style="stop-color:#51B8DC"/>
			<stop  offset="1" style="stop-color:#FFFFFF"/>
		</linearGradient>
		<path class="st22" d="M164.7,94l-2.7,8.9l-5.6,0.8c0.5-1.1,1.1-2.2,1.8-3.2c1.3-1.9,2.9-3.7,4.6-5.1C163.4,94.9,164,94.4,164.7,94
			z"/>
		
			<linearGradient id="SVGID_18_" gradientUnits="userSpaceOnUse" x1="-303.7649" y1="-79.9607" x2="-312.4511" y2="-95.0056" gradientTransform="matrix(3.651077e-02 -0.9993 0.9993 3.651077e-02 286.666 -189.0618)">
			<stop  offset="4.927099e-02" style="stop-color:#51B8DC"/>
			<stop  offset="1" style="stop-color:#FFFFFF"/>
		</linearGradient>
		<path class="st23" d="M191,102.8C191,102.8,191,102.8,191,102.8c2.7,5.6,2.7,12.5-2.1,20.3c-0.5,0.9-1.1,1.7-1.8,2.6
			c-0.7,1-1.5,1.9-2.2,2.8l-1.3-14.6L191,102.8z"/>
		
			<linearGradient id="SVGID_19_" gradientUnits="userSpaceOnUse" x1="-316.1379" y1="-90.0343" x2="-316.1379" y2="-103.1419" gradientTransform="matrix(3.651077e-02 -0.9993 0.9993 3.651077e-02 286.666 -189.0618)">
			<stop  offset="4.927099e-02" style="stop-color:#51B8DC"/>
			<stop  offset="1" style="stop-color:#FFFFFF"/>
		</linearGradient>
		<polygon class="st24" points="183.7,113.9 174.9,119.2 171.7,132.7 185,128.5 		"/>
		
			<linearGradient id="SVGID_20_" gradientUnits="userSpaceOnUse" x1="-313.0646" y1="-106.4625" x2="-300.4376" y2="-106.4625" gradientTransform="matrix(3.651077e-02 -0.9993 0.9993 3.651077e-02 286.666 -189.0618)">
			<stop  offset="0" style="stop-color:#B82154"/>
			<stop  offset="0.8021" style="stop-color:#ED2C65"/>
		</linearGradient>
		<polygon class="st25" points="162.8,119.7 174.4,107.5 174.9,119.2 		"/>
		
			<linearGradient id="SVGID_21_" gradientUnits="userSpaceOnUse" x1="-312.1702" y1="-96.5771" x2="-300.4376" y2="-96.5771" gradientTransform="matrix(3.651077e-02 -0.9993 0.9993 3.651077e-02 286.666 -189.0618)">
			<stop  offset="4.927099e-02" style="stop-color:#51B8DC"/>
			<stop  offset="1" style="stop-color:#FFFFFF"/>
		</linearGradient>
		<polygon class="st26" points="174.4,107.5 183.7,113.9 174.9,119.2 		"/>
		
			<linearGradient id="SVGID_22_" gradientUnits="userSpaceOnUse" x1="-306.5273" y1="-93.1339" x2="-295.1544" y2="-93.1339" gradientTransform="matrix(3.651077e-02 -0.9993 0.9993 3.651077e-02 286.666 -189.0618)">
			<stop  offset="4.927099e-02" style="stop-color:#51B8DC"/>
			<stop  offset="1" style="stop-color:#FFFFFF"/>
		</linearGradient>
		<polygon class="st27" points="174.4,107.5 191,102.8 183.7,113.9 		"/>
		
			<linearGradient id="SVGID_23_" gradientUnits="userSpaceOnUse" x1="-313.0646" y1="-107.638" x2="-287.7197" y2="-107.638" gradientTransform="matrix(3.651077e-02 -0.9993 0.9993 3.651077e-02 286.666 -189.0618)">
			<stop  offset="4.927099e-02" style="stop-color:#51B8DC"/>
			<stop  offset="1" style="stop-color:#FFFFFF"/>
		</linearGradient>
		<polygon class="st28" points="174.4,107.5 173.7,94.7 162,102.9 162.8,119.7 		"/>
		
			<linearGradient id="SVGID_24_" gradientUnits="userSpaceOnUse" x1="-300.4381" y1="-93.7497" x2="-287.7209" y2="-93.7497" gradientTransform="matrix(3.651077e-02 -0.9993 0.9993 3.651077e-02 286.666 -189.0618)">
			<stop  offset="4.927099e-02" style="stop-color:#51B8DC"/>
			<stop  offset="1" style="stop-color:#FFFFFF"/>
		</linearGradient>
		<path class="st29" d="M173.7,94.7l14.1,3.2c1.3,1.5,2.4,3.1,3.3,4.9l-16.6,4.7L173.7,94.7z"/>
		
			<linearGradient id="SVGID_25_" gradientUnits="userSpaceOnUse" x1="-296.3173" y1="-108.2538" x2="-283.7898" y2="-108.2538" gradientTransform="matrix(3.651077e-02 -0.9993 0.9993 3.651077e-02 286.666 -189.0618)">
			<stop  offset="4.927099e-02" style="stop-color:#51B8DC"/>
			<stop  offset="1" style="stop-color:#FFFFFF"/>
		</linearGradient>
		<path class="st30" d="M173.8,90.8l-0.1,3.9l-11.7,8.2l2.7-8.9C167.5,92.1,170.6,90.9,173.8,90.8z"/>
		
			<linearGradient id="SVGID_26_" gradientUnits="userSpaceOnUse" x1="-290.3958" y1="-95.4844" x2="-283.7527" y2="-95.4844" gradientTransform="matrix(3.651077e-02 -0.9993 0.9993 3.651077e-02 286.666 -189.0618)">
			<stop  offset="4.927099e-02" style="stop-color:#51B8DC"/>
			<stop  offset="1" style="stop-color:#FFFFFF"/>
		</linearGradient>
		<path class="st31" d="M181.1,92.6c2,1.2,3.9,2.5,5.5,4.1c0.4,0.4,0.8,0.8,1.1,1.2l-14.1-3.2l0.1-3.9l0.5,0
			C176.6,90.8,178.9,91.3,181.1,92.6z"/>
	</g>
	<circle class="st32" cx="182.8" cy="101.8" r="9.3"/>
	
		<linearGradient id="SVGID_27_" gradientUnits="userSpaceOnUse" x1="-235.7058" y1="-268.3898" x2="-195.8462" y2="-268.3898" gradientTransform="matrix(-0.2004 -0.9797 0.9797 -0.2004 423.1496 -181.6213)">
		<stop  offset="0.3371" style="stop-color:#F78F20"/>
		<stop  offset="1" style="stop-color:#FFC713"/>
	</linearGradient>
	<path class="st33" d="M223.9,59.4L180.2,95c-2.4,1.5-3.8,4.3-3.2,7.3c0.8,3.7,4.4,6.1,8.1,5.4c2.3-0.5,4-2,4.9-3.9l38.2-39.6
		c1.2-1.2,1.2-3.1,0.1-4.4C227.2,58.5,225.2,58.3,223.9,59.4z"/>
	<polygon class="st10" points="107.6,220.8 102.4,239 109.8,234.7 120.8,226 120.8,220.8 	"/>
	<polygon class="st10" points="192.6,237.7 209.3,223.8 211.9,229.9 	"/>
	<polygon class="st10" points="214.5,209.5 228.4,199.1 214.7,219 209.3,223.8 	"/>
	<polygon class="st10" points="235.1,197.9 228.4,199.1 225.5,181.2 233.4,186 	"/>
	<polygon class="st2" points="228.4,199.1 225.5,211.4 225.5,221.8 236.4,204.5 235.1,197.9 	"/>
	<polygon class="st34" points="225.5,211.4 214.7,219 209.3,223.8 211.9,229.9 225.5,221.8 	"/>
</g>
</svg>
